<svg width="180" height="180" viewBox="0 0 24 24" fill="none" xmlns="http://www.w3.org/2000/svg">
  <rect width="24" height="24" rx="4" fill="#e91e63"/>
  <path d="M9.5 14C10.04 14 10.5 13.54 10.5 13C10.5 12.46 10.04 12 9.5 12C8.96 12 8.5 12.46 8.5 13C8.5 13.54 8.96 14 9.5 14M14.5 14C15.04 14 15.5 13.54 15.5 13C15.5 12.46 15.04 12 14.5 12C13.96 12 13.5 12.46 13.5 13C13.5 13.54 13.96 14 14.5 14M12 6C15.5 6 19 8.69 19 12C19 12.2 18.97 12.41 18.94 12.61C18.97 12.74 19 12.87 19 13C19 14.1 18.1 15 17 15H16C15.62 15 15.26 14.9 14.96 14.71C14.64 14.9 14.33 15 14 15H10C9.67 15 9.36 14.9 9.04 14.71C8.74 14.9 8.38 15 8 15H7C5.9 15 5 14.1 5 13C5 12.87 5.03 12.74 5.06 12.61C5.03 12.41 5 12.2 5 12C5 8.69 8.5 6 12 6M12 4C7.58 4 4 7.58 4 12C4 13.06 4.22 14.06 4.61 14.96C4.24 15.32 4 15.83 4 16.4C4 17.5 4.9 18.4 6 18.4H18C19.1 18.4 20 17.5 20 16.4C20 15.83 19.76 15.32 19.39 14.96C19.78 14.06 20 13.06 20 12C20 7.58 16.42 4 12 4Z" fill="#ffffff"/>
</svg>